<svg xmlns="http://www.w3.org/2000/svg" xmlns:xlink="http://www.w3.org/1999/xlink" width="420" height="588"><defs><path id="a" d="M.232.73h1.5v1.614h-1.5z"/><path id="c" d="M.5.272h.845v3.075H.5z"/></defs><g fill="none" fill-rule="evenodd" opacity=".4"><path fill="#FFF" d="M417.145 585.722c.334-.086.4-.164.146-.188-.198-.018-.948-.002-.724.376.198.222.55.434.908.56-.316-.206-.628-.558-.664-.7 0 0 .044.01-.024.012-.074.004-.188-.046-.114-.018.024.014.034.032.034.044-.03-.018.046.046.06.05l.018-.006c-.018-.04.226-.078.36-.13"/><path fill="#FFF" d="M417.56 582.321c-1.93-1.204-4.453-1.74-3.245-.945 1.046.276 1.655.567 2.264.883.603.329 1.23.65 2.165 1.36.646.67.953 1.434 1.018 1.937.05.511-.053.75-.11.61.055.295.01.964-.378 1.366-.449.42-1.109.236-1.578.162.488.264 1.095.46 1.663.14.526-.356.666-1.116.638-1.835-.102-1.498-1.328-2.754-2.681-3.575-.533-.452.072-.147.244-.103M250.453 514.76l1.094.48c-.302-.13-.674-.294-1.094-.48m-102.047-42.955c.814.318 1.164.424 1.216.412-.76-.282-1.386-.512-1.216-.412m-17.938-6.031l1.064.452c-.398-.192-.802-.374-1.064-.452M251 513.618l-1.984-1.236c-.168.02 1.01.658 1.984 1.236m144.212 60.118a30.34 30.34 0 0 0 1.576.54l-1.464-.552c-.034.006-.062.012-.112.012m-98.028-41.991l.866.346c.266.066.522.12.766.164l-1.632-.51zm34.445 15.203c-.81-.338-1.2-.192-1.556-.204.502.08 1.124.268 1.848.534.032-.042-.05-.146-.292-.33m55.856 21.867l1.03.37-1.03-.37m-116.339-46.702c-.044-.064-.16-.15-.292-.226-.01.032.104.116.292.226M56.091 5.025c.034-.016-.01-.034.002-.05-.226.006-.298.018-.002.05"/><g transform="translate(12 -1)"><mask id="b" fill="#fff"><use xlink:href="#a"/></mask><path fill="#FFF" d="M.697 1.419l.468.002c.05-.05.102-.102.102-.154l-.57.152z" mask="url(#b)"/></g><path fill="#FFF" d="M98.684 450.882c.064.03.086.04.146.064.888.322.39.13-.146-.064m44.772-187.528c-2.894 1.258 4.472-2.716.147-.732.43-.108-3.705 2.438-.147.732m249.283 308.941c-.486-.196-.982-.392-1.478-.59l1.478.59"/><path fill="#FFF" d="M143.271 262.898l-.002-.002-.54.208.542-.206M26.72 416.687c.096.144.322.382.56.626-.004-.038-.126-.186-.56-.626m52.98 27.614l-1.4-.602 1.4.602M8.428 392c-.304-.745-.378-1.01-.856-2 .034.1.064.196.104.32.196.347.424.823.752 1.68M3.17 361.198c-.046.168-.11.386-.166.582l-.174 1.022.34-1.604zM152 23.424a7.469 7.469 0 0 1-.991-.672c.307.336-3.03-.968.991.672m242.405 550.634c-.208-.008-.484-.08-.962-.256.354.136.696.27 1.03.396.106-.002.14-.03-.068-.14M4.962 392c-.74-1.3-1.342-2.649-1.924-4 .478 1.136 1.116 2.61 1.924 4m318.927-237.418l.222-1.164a11.24 11.24 0 0 0-.222 1.164"/><g transform="translate(0 368)"><mask id="d" fill="#fff"><use xlink:href="#c"/></mask><path fill="#FFF" d="M.5 3.347C.587 2.537.646 1.682.69.8.675.612.664.397.643.272L.5 3.347z" mask="url(#d)"/></g><path fill="#FFF" d="M150.995 21.997c.01.004.01.006.01.006s0-.002-.01-.006"/><path fill="#FFF" d="M216.285 46.017c1.397.603 1.838.866 2.003 1.005-.656-.295-1.423-.638-2.43-1.087l-.179-.045c.155.014.326.04.606.127m17.397 10.664a3910.54 3910.54 0 0 0-3.703-1.891c-.256-.236.11-.16.968.28-.495-.179 1.497.892 2.735 1.61m-8.55-4.333l-.002.006-2.108-1.052c.439.219 1.048.521 2.11 1.046M117.82 14.885c4.753 1.073 2.308.185 3.363.207 5.666 1.34 2.547.925 4.424 1.594 3.54.804 6.324 1.173 8.948 1.858.179.107.685.26.068.177 3.814.615 10.957 3.153 15.367 4.031.311.125.462.201.536.25-.644-.376-.699-.585-.52-.667 2.102.613 3.966.93 4.688 1.387-1.287-.386-1.421-.326-2.044-.433l2.228.552c1.871.937-3.03-.794-3.11-.534a163.549 163.549 0 0 1 12.553 3.771c.575.54-7.63-2.437-3.389-.706l-4.986-1.803c3.684 1.783-3.04-1.056.318.658 6.578 2.302 7.444 2.314 14.005 4.61 1.547.322-.4-.421 1.145-.1 9.385 3.138 7.001 3.511 13.96 5.646 1.836.466 2.7.265 7.383 2.497l-1.766-.333c6.211 2.636 3.758.989 10.189 3.949-1.217-.351-4.946-1.934-4.02-1.499 4.113 2.04 3.07 1.054 6.322 2.412l.541.588c3.314 1.39 6.741 2.973 10.297 4.509 3.539 1.58 7.221 3.08 10.758 4.917-.435-.11-1.699-.634-.082.3 4.505 2.217 9.315 4.586 13.982 7.128l13.366 7.706c1.137.497 2.23 1.073 3.334 1.625.736.449 1.303.939.476.504 3.175 2.046.26-.055 1.869.786 1.85 1.095 2.345 1.61 1.137.98 2.898 1.638 7.068 3.917 11.146 6.435 4.04 2.577 8.08 5.243 10.93 7.297l-1.19-.68c4.507 3.09 5.485 2.905 9.443 6.085l-.813-.533c4.775 3.509 9.693 7.343 14.028 11.304 4.352 3.943 8.05 8.072 10.625 11.744.336.277.976.974 1.675 1.928.666.978 1.466 2.154 2.252 3.306 1.42 2.398 2.727 4.712 3.094 4.95 1.413 3.054 1.642 4.246 2.139 5.694.266.718.495 1.537.774 2.749l.55 2.125c.213.825.314 1.818.52 2.964.109.612.227 1.141.355 1.64l.254 1.48c.154.991.445 2.06.478 3.611l-.301.08.148 2.098c.019.7 0 1.403 0 2.11-.16.737-.365 1.46-.612 2.177-.12.954-.21 1.918-.423 2.862.305-1.116.55-2.394.627-2.204-.237 2.267-1.013 4.95-1.74 7.042-.807 2.072-1.517 3.568-1.638 3.58a54.57 54.57 0 0 1-4.794 9.612c.006-.283 1.006-1.788 1.605-3.083-1.31 2.556-1.587 2.7-1.74 2.835-.181.121-.286.215-1.7 2.435.463-.534-.075.418-.096.55-1.664 2.041-5.49 6.64-8.73 9.67.168-.235.315-.493.473-.739-5.792 5.475-13.064 10.703-20.995 15.027 2.871-1.505 2.407-.822.1.501l-1.084.23c-1.415.988 2.494-1.22-.487.672-3.014 1.543-2.18.735-.507-.252l-3.604 1.982c-.258.022.584-.45.753-.675-1.413.954-6.5 2.849-8.578 4.168l-.25.01c-8.292 3.727-12.054 5.416-18.809 8.455-.023.308-2.703 1.414-4.64 2.505-5.028 2.105-10.653 4.334-16.659 6.987-4.173 1.977-1.143.753-2.977 1.735-.412-.092-6.41 2.558-3.366 1.03-7.203 3.198-9.2 4.082-18.25 8.264 1.031-.338 2.165-.787 1.621-.455-1.64.763-3.812 1.553-3.62 1.34l.425-.216c-10.1 4.831-23.943 9.688-31.895 13.737l.446-.223-8.354 3.951c-3.911 1.667 2.261-1.194-.681-.074-8.964 4.379-14.447 6.258-21.856 9.805-6.109 1.875-20.637 9.066-28.652 12.164l.522-.043c-1.954 1.068-2.486 1.011-3.994 1.645.265.03 2.259-.845 1.04-.193-17.037 7.914-35.294 16.193-52.026 25.93-6.064 3.653-3.012 2.775-10.734 7.23l1.959-1.636c-11.769 7.994-24.36 16.348-33.693 27.04.516-.665.462-.749 1.398-1.763-1.097 1.014-2.991 3.026-4.467 4.924-.774.916-1.384 1.848-1.85 2.512-.46.669-.73 1.108-.7 1.147-1.299 1.782-.437.312-1.295 1.376-1.925 2.349-3.72 6.59-4.633 7.914-.161.228.324-.786.565-1.288l-.986 2.01c-.37.85-.777 1.795-1.138 2.63-.704 1.676-1.042 2.978-.625 2.123-1.968 5.009-2.572 9.945-2.923 14.205.06.704.072 1.625.06 2.632.012 1.005.103 2.09.142 3.12.114 2.053.46 3.848.699 4.252-.272-.152.062 2.181.753 4.92.712 2.73 1.892 5.808 2.67 7.306-.568-.989 1.033 2.752.342 1.61 1.576 3.536 3.475 6.523 3.337 5.823 3.047 6.5 8.511 11.32 10.777 14.597 8.181 7.982 17.137 13.575 26.076 18.275-.255.092-2.745-1.192-5.074-2.568-2.345-1.346-4.539-2.759-4.488-2.433 4.12 2.525 7.52 4.23 10.907 5.899 3.393 1.664 6.807 3.229 11.118 5.225 2.219 1.066-1.35-.4-2.14-.675 8.788 3.82 17.01 7.263 24.959 10.23-.039.03-.903-.27-1.718-.564 1.557.613 3.583 1.517 3.482 1.259l-1.531-.558c-2.37-1.27 6.384 1.92 6.718 1.889-2.846-.529 7.721 3.268 3.27 2.255 1.035.375 2.351.804 2.167.584 1.498.648 1.952.915.357.437 5.598 2.14 3.703 1.145 8.734 3.18-.054.082-1.083-.292-1.646-.396 2.617.851 5.249 1.71 9.473 3.5-.278-.05.186.221-1.081-.294 7.317 2.92 12.638 4.556 20.584 7.955-2.52-.562 2.673 1.23 2.964 1.739l4.35 1.637-1.663-.86c3.771 1.527 7.207 2.626 10.408 4.044l-2.862-.99 7.1 2.787-3.953-1.742c3.89 1.366-.239-.593 4.75 1.526-1.035-.377 3.773 1.53 5.662 2.519l-.014-.004c1.91.646 3.878 1.307 6.634 2.517.682.402-.731.14-.289.402 1.955.46 8.873 3.487 11.324 4.127-.805-.244-.916-.082-.673.057l1.636.394c1.72.778 1.96.917 1.62.944 5.246 2.162-1.498-1.104 4.671 1.6-.497-.18-.278-.05-1.312-.43 6.233 2.627 12.17 4.742 17.888 7.177 1.563 1.025-5.068-1.945-3.235-.874 8.33 3.286 17.364 6.527 25.37 9.85l-1.484-.642c1.307-.031 5.893 2.652 10.049 4.063-1.01-.365-1.411-.258-1.122-.203 5.474 2.298 11.303 4.421 19.704 7.633l-1.082-.293c3.2 1.417 8.518 3.509 12 4.976 1.09.298 3.086 1.128 1.939.457 10.526 5.06 20.763 7.933 30.117 12.386-1.147-.462-2.775-.995-1.863-.626l8.212 3.178c-.563-.468-1.02-.558-2.67-1.412 1.08.292 3.425 1.127 5.448 1.943-3.727-1.344-.103.347 1.438 1.104-.24-.171.33-.023.224-.142 4.118 2.092.883-.133 6.607 2.466l-.353-.013c2.203.821 4.27 1.486 6.609 2.466.877.634-2.366-.823-2.595-.683 3.305 1.315 6.696 2.168 9.588 3.614-1.42-.527-3.453-1.28-4.876-1.81 3.143 1.599 3.549 1.679 5.948 2.698l-.235-.102 5.538 2.383-1.392-.652c4.383 1.036 8.46 3.278 14.189 5.108-5.565-1.791-.984-.134-1.508-.027 1.392.65 3.517 1.606 2.87 1.434 2.72.841 4.323 1.945 8.163 3.12.134.154 2.812 1.143 2.131 1.126 3.447 1.31-.75-.48-.417-.474 5.392 1.822 12.248 5.362 19.994 8.006 6.608 2.466 7.935 2.657 14.063 4.954 1.992.968-1.807-.353-1.807-.353 3.253 1.463 5.748 2.44 8.902 3.594-.662-.176-.037.15.873.632 2.508.985 1.798.351 5.041 1.81-.604-.128-1.392-.263-2.636-.65l9.03 3.262c.747.48-1.931-.506-3.046-.84 3.452 1.312 8.931 3.439 10.086 3.622l-2.162-.972c1.252.492.557.467-.38.14-3.013-.992-4.203-1.792-4.333-1.947l2.195.818c-2.024-1.415-8.754-3.432-13.112-5.225l1.974.359-4.608-1.495c-.914-.484-1.483-.956.7-.142-3.06-1.45-2.829-.984-5.438-2.278-.283-.152-.141-.115.14-.02l-3.106-1.121c.631.162-.403-.472 1.456.341-5.408-2.433-8.973-3.291-10.928-4.41l.468.163c-7.673-2.947-.846-.02-6.693-2.002l-3.577-2.235-.858-.025c-.782-.326-2.331-.974-1.997-.968-3.003-.993.448.32-1.32-.187-3.686-1.778-10.486-4.09-11.161-4.874-1.444-.338 3.554 1.621-.546.138-.964-.938-4.703-1.803-8.074-3.414 1.158.183 4.382 1.633 1.01.021-2.25-.43-6.698-2.808-9.646-3.904-.268.275-6.398-2.42-11.336-4.283.355.013-9.136-3.897-13.641-5.85h.155c-1.013-.023-5.685-1.98-9.133-3.292.214-.144.86.026 2.749.685l-3.215-1.296c-.801-.2-1.828-.548-3.928-1.352l.908.078c-4.284-1.71-8.733-3.182-14.173-5.567-.402.106 4.12 2.41-1.76.219-.168-.213-.296-.515 1.247.049-.504-.184-1.82-.613-2.805-1.071l2.411.725c-2.47-1.104-1.382-.353-3.38-1.18.111-.164-1.432-.726-1.088-.753.518.19 1.72.78 2.515 1.02-2.247-.944-4.938-2.152-5.788-2.652.158.182-.095.242-1.758-.403-4.286-1.712-1.38-.806-3.84-1.903-1.085-.295-3.763-1.524-3.942-1.286-1.25-.505-1.432-.724-1.887-.991-2.26-.777-10.357-4.137-7.975-2.847l.559.248c-.107-.041-.233-.086-.365-.135l.017.006-.017-.006c-7.365-2.661-15.018-6.232-22.266-9.022l.049-.084c-4.343-1.63-9.595-3.797-12.741-4.843-1.27-.513-2.935-1.374-2.35-1.26-3.312-1.26-3.72-1.306-8.41-3.368 3.366 1.176-1.085-.6 3.434 1.252-4.241-1.8-5.151-2.333-9.833-3.937 1.654.4-3.098-1.585-5.156-2.336l2.927 1.372c-2.296-.888-4.283-1.713-6.302-2.55l1.215.14c-8.591-3.89-16.006-5.73-22.413-9.024-2.397-.724 4.685 2.06 2.521 1.473-4.004-1.66-8.018-3.782-9.278-4.291-5.439-2.386-5.313-1.631-11.027-4.07.693.406 1.273.973-3.07-.664-4.009-1.66-4.766-2.443-2.192-1.504.968.378 1.419.6 1.364.62 1.316.484 3.038 1.126 1.491.37l-.565-.104c-1.949-.915-7.488-3.134-6.118-2.787-3.08-1.124-1.37-.347.858.617-5.097-2.238-8.057-3.255-13.325-5.503.819.4 1.547.841.706.5-7.735-3.274-3.51-1.179-8.806-3.26-2.933-1.372 1.23.042-4.137-1.963-3.2-1.419-.572-.562.752-.13-4.923-1.744-8.991-3.78-11.74-4.934l2.584.94c-1.543-.563-2.791-1.069-4.063-1.58l1.37.802c-1.482-.642-2.75-1.153-2.686-1.231-1.597-.482 1.039.833-2.1-.21-1.95-.912-6.124-2.333-6.699-2.897 6.239 2.629-.58-.565 4.752 1.53a70.455 70.455 0 0 1-3.775-1.528c-.214-.12.237.028.652.176-5.903-2.675-2.89-.79-9.111-3.305.856.158-1.32-.888-2.351-1.265 2.506 1.017 1.093.753-1.258-.05-3.94-1.737-4.375-1.657-6.458-2.514l2.363 1.019c-.874-.166-2.861-.99-5.662-2.063-.189-.22 2.56.935 1.59.48-3.203-.967-6.862-3.106-11.214-4.71-1.933-.946-.066-.382-1.772-1.188-4.847-1.862-5.066-2.433-10.066-4.58 1.323.87 1.583.968-1.967-.501 2.704 1.268 5.447 2.456 8.197 3.621-1.793-.683-3.596-1.354-5.374-2.078 2.445 1.161 5.256 2.24 6.73 2.921-2.592-.923-2.31-.866-1.2-.168-3.246-1.82-6.792-2.829-10.523-4.964l.373-.458c-5.575-3.161-10.264-5.028-17.027-9.908a46.527 46.527 0 0 0 2.147 1.602c-1.076-.404-4.253-2.898-6.415-4.506.308.01-.975-1.085-1.763-1.928-.023.234-4.577-3.976-5.305-4.318-.805-.944-1.64-1.86-2.38-2.854l-4.726-5.366c-1.24-1.423-2.44-2.86-4.103-5.645 1.182 1.557-.258-.993 2.205 2.548-1.202-1.783-2.147-3.465-2.261-3.44-.556-1.118-3.12-5.108-3.638-7.056-.423-.804-.786-.98-1.564-3.278-.055-.263.093-.023.093-.023-.049.012-.398-.87-.672-1.503-.235-.642-.407-1.028-.215.03-.717-3.278-1.794-7.805-2.07-12.342-.306-4.525.117-8.99 1.018-11.744.828-4.619 2.853-9.965 4.928-13.704-.076.27.078.059-.315.763 1.406-2.583 1.895-3.346 2.26-4.31.421-.925.912-1.952 2.99-4.611 2.313-2.554-2.01 2.962-.634 1.315.538-.187 1.703-1.832 3.232-3.772 1.528-1.94 3.434-4.166 5.157-5.639l-.745.8c2.545-2.322 5.833-6.091 10.257-9.637 0 0-.177.22.035.096 1.387-1.354 3.528-3.171 5.894-5.019a249.367 249.367 0 0 1 7.182-5.319c-1.275 1.145-1.954 1.534-.974 1.13 1.995-1.41-.829.064 3.183-2.728 1.382-.796 4.393-2.624 4.944-2.632a114.7 114.7 0 0 0-3.841 2.536c2.125-1.057 4.99-3.25 7.057-4.519l-.18.295c5.969-3.744 5.86-4.127 12.436-7.906l-.734.294c3.422-2.378 3.139-1.512 6.615-3.775l1.283-.254c2.357-1.387 8.283-4.831 12.65-7.081-2.36 1.5-7.407 4.238-10.448 6.084 2.377-1.304 8.154-4.281 9.324-5.099-.955.531-2.135 1.245-3.123 1.686 2.817-1.8 6.666-3.898 11.538-6.246-.561 1.052 12.803-5.88 16.627-6.94 8.59-4.21 17.37-7.622 27.563-12.133-3.853 1.054 2.973-1.32 2.11-1.59 2.362-1.077 3.274-1.466 3.501-1.524l7.349-2.828c1.778-.589-2.209 1.11-1.937 1.138 5.227-2.238 2.284-.724 5.796-2.088-.792.113 1.688-1.073 4.69-2.298l-4.29 1.578c7.15-3.477 6.488-2.295 13.697-5.795l-2.243 1.188c3.719-1.748 13.886-6.074 17.386-8.13.694-.229 1.638-.463-.002.302 9.025-3.873 19.823-9.235 26.932-12.026l-.624.434c1.66-.773 2.811-1.53 4.971-2.315-.083.102-.617.428.162.096.87-.435 4.36-2.185 6.617-3.08l-1.837.98c8.851-3.666 13.308-6.261 20.626-9.574.151.402 7.112-2.492 10.584-3.938l-.093.11c10.22-4.457 17.262-7.815 26.542-12.453 2.99-1.204 7.923-3.571 13.057-6.627 5.164-3.01 10.447-6.8 14.504-10.119-1.281.964-.002-.408 1.331-1.701.963-.765 2.09-2.043 3.03-2.995.895-1.001 1.563-1.721 1.576-1.444l-.603.634c1.6-1.032 4.845-4.974 7.065-8.264l-.046-.823c3.185-4.063 6.331-10.232 7.857-16.287 1.661-6.033 1.646-11.74 1.784-14.59-.189-1.252-.268-2.665-.513-4.052-.287-1.38-.574-2.753-.865-3.963l.29.068a5595.72 5595.72 0 0 0-1.259-4.554c-.518-1.35-1.005-2.62-1.51-3.942-.582-1.281-1.248-2.583-1.972-4.062-.835-1.415-1.722-3.022-2.918-4.798.394.435.761.894 1.105 1.37-1.264-2.074-2.368-3.173-3.343-4.281-1.075-1.034-2.088-2.043-3.492-3.739l-.564-1.268c-5.47-6.334-11.656-12.188-18.417-16.874.146.033.41.087 1.487.897-3.026-2.501-12.1-9.114-11.278-7.783.127-.36-7.12-4.724-10.937-7.04l.726.154c-3.34-1.78-3.465-1.805-8.032-4.426-1.05-.675-.823-.75.559.166-3.487-2.273-2.906-1.455-7.145-4.187l1.696.821c-3.65-2.23-3.406-1.974-5.522-3.018-2.357-1.296-7.044-4.016-7.467-4.556-.579-.15-2.722-1.11-4.89-2.397-.254-.243.575.15.992.35-6.134-3.7-9.53-4.712-13.781-7.198-.053-.127-.317-.313-.668-.521 5.062 2.575 9.138 4.66 8.746 4.484.117-.223-3.96-2.34-.54-.994-3.38-1.502-9.182-3.986-13.119-6.115a4.908 4.908 0 0 1-.49-.345l.424.183c-.914-.482-1.737-.901-2.548-1.225-1.278-.636-2.089-1.046-3.333-1.624-.392-.41-4.732-2.308-6.81-3.278.06.33-2.641-.965-.186.416-.32-.17.408.152 1.794.78l.895.383-.152-.045 5.171 2.369c-1.7-.632-3.463-1.317-5.695-2.515-1.14-.348-2.385-.724-3.08-.937-1.343-.823-3.356-1.937-5.138-2.868-1.798-.892-3.34-1.657-3.682-1.926-3.248-1.3-7.066-2.827-10.587-4.238a79.158 79.158 0 0 0-8.975-2.982c-1.883-.636-2.085-.94-2.75-1.278 1.088.355 2.364.841 2.97.992-3.772-1.247-11.01-4.15-12.059-4.022-4.69-1.74 2.776.58-3.761-1.545l.914.189c-6.338-2.369-11.573-4.072-17.11-5.384-2.755-.7-5.548-1.42-8.539-2.273-2.983-.876-6.176-1.814-9.783-2.876.994.3 1.49.449 1.683.56-16.415-4.837-34.34-7.71-50.877-10.96-4.73-.77-5.28-.617-8.197-.849l-.988-.437-4.994-.359c-7.056-.62-12.126-2.056-21.105-2.468l1.14.277c-3.213-.258-10.193-.55-9.642-.745-.332.013-1.067.136-2.317-.05l-.09-.16C34.263.997 31.63.818 28.988.866c-6.13-.28.986-.585-7.974-.862-3.333-.031-9.488.19-8.24.326 1.345.045 3.43.191 3.53.35L13.26.673c-.557.441-2.889.841 4.551 1.362l5.198-.134 1.664.265-4.367-.105c2.472.275 4.047.134 5.81.056.41.129 1.137.232 2.165.303a84.382 84.382 0 0 1 5.11-.192c.607.219-2.297.203 1.11.525 2.393-.047-2.266-.548 1.688-.423 2.467.369 1.732.49 4.653.503.402.143-.22.178-1.376.154 2.599.03 6.855.387 8.212.235 2.558.442 8.725.81 8.43 1.196.821-.02 4.581.132 6.955.357-2.194.033.023.269 2.64.55 2.61.312 5.603.8 5 .978 1.624-.004 4.513.349 7.706.772 3.193.42 6.692.888 9.515 1.313-.319-.02-.948-.056-1.44-.167 3.158.6 4.052.903 6.07 1.352.469-.305 5.413.49 8.117.732 3.806 1.053-2.442.019-1.291.585-.07-.164 1.632.043 3.185.275 1.545.261 2.952.501 2.321.232 2.902.86 2.516.658 3.968 1.296.615-.355 2.756.515 5.262.757 4.21 1.153.998.675 5.71 1.547 1.086.355.589.3-.182.178l-1.824-.29"/><path fill="#FFF" d="M212.914 44.951l-.596-.25c.282.152.552.298.822.446.186.054.376.106.542.152-.26-.118-.528-.238-.768-.348m39.082 470.032l-.192-.084c.156.076.302.144.392.202-.12-.072-.124-.074-.2-.118m73.969-371.557l.07-.014-.06-.838zm-25.282 392.408c.086.06.266.162.634.332-.02-.028-.298-.166-.634-.332M322 544.335l3 1.33c-1.3-.576-2.244-.996-3-1.33m16.813 5.651c.23.04.304.03.374.02l-.032-.014-.342-.006zm-259.1-102.724l-.652-.248c-1.54-.558-.498-.164.652.248M157 477.438c-.661-.296-1.313-.59-2-.9 1.08.588 1.923 1.032 2 .9M6.111 392.268c.004.01.002 0 .008.008-.084-.192-.156-.362-.238-.552l.23.544zM151 475.258a39.39 39.39 0 0 0 3 1.484c-.935-.482-2.037-1.056-3-1.484m257.542 103.574l.802.336c-.006-.024.048-.018.114-.004l-.916-.332zm1.003.003l.91.33c-.412-.166-.772-.308-.91-.33m2.412 1.511l-1.914-.692c.652.262 1.456.594 1.914.692m-23.811-10.353l-.292-.008c.146.036.248.042.292.008"/><path fill="#FFF" d="M381 568c1.732.499 4.285 1.362 6.74 1.993l.26.007c-1.202-.213-5.277-1.66-7-2m-27-12l5.613 2c-.946-.425-2.19-.985.387-.125-6.994-2.696 1.377.695-6-1.875m-16.962-7.888c2.144 1.172.017-.16.146-.154-1.378-.68-1.711-.844-.146.154m-122.901-48.864l.402-.114c-2.358-.906-.06.082-.402.114M190 490.36l1.963 1.062 1.037.218zm-12.79-6.996l.79.376-3-1.48zM3.205 367l-.39.71c-.074.825.082 1.334.146 1.287.09-.047.124-.64.244-1.997M67 300c.814-.32 2.844-1.257 4-2-1.587.812-3.225 1.529-4 2m254.018-131.612c-.31.535-.59 1.089-.928 1.612.636-.986 1.226-1.996 1.82-3l-.892 1.388z"/></g></svg>
